<svg width="98" height="91" viewBox="0 0 98 91" fill="none" xmlns="http://www.w3.org/2000/svg">
<path d="M11.7813 89.9805L87.4549 88.7386C92.7009 88.6525 96.8839 84.33 96.7978 79.084L95.6642 10.0069C95.5781 4.76087 91.2555 0.577932 86.0095 0.664023L10.336 1.90589C5.08996 1.99198 0.907033 6.3145 0.993124 11.5605L2.12674 80.6377C2.21283 85.8837 6.53535 90.0666 11.7813 89.9805Z" fill="#8F939E" stroke="#8F939E"/>
<path d="M25.2397 40.1989C25.4764 39.4318 25.8031 38.7453 26.2198 38.1392C26.627 37.5237 27.1194 36.9981 27.6971 36.5625C28.2653 36.1269 28.9187 35.8002 29.6573 35.5824C30.396 35.3551 31.2009 35.2415 32.0721 35.2415C33.6346 35.2415 35.0266 35.6345 36.2482 36.4205C37.4698 37.2064 38.431 38.3617 39.1317 39.8864C39.823 41.4015 40.1687 43.2481 40.1687 45.4261C40.1687 47.6231 39.823 49.4839 39.1317 51.0085C38.4405 52.5331 37.4793 53.6932 36.2482 54.4886C35.0172 55.2746 33.5872 55.6676 31.9585 55.6676C30.4812 55.6676 29.2028 55.3835 28.1232 54.8153C27.0342 54.2472 26.1961 53.4422 25.609 52.4006C25.0219 51.3494 24.7283 50.1184 24.7283 48.7074L23.5352 48.892H31.4329V44.7727H19.6289V48.267C19.6289 50.7576 20.1592 52.9119 21.2198 54.7301C22.2804 56.5483 23.7388 57.9498 25.5948 58.9347C27.4509 59.91 29.5816 60.3977 31.9869 60.3977C34.6668 60.3977 37.02 59.7964 39.0465 58.5938C41.0636 57.3816 42.6403 55.6629 43.7766 53.4375C44.9035 51.2027 45.467 48.5511 45.467 45.483C45.467 43.1345 45.1355 41.0369 44.4727 39.1903C43.8003 37.3438 42.8628 35.7765 41.6602 34.4886C40.4575 33.1913 39.0465 32.2064 37.4272 31.5341C35.8079 30.8523 34.0465 30.5114 32.1431 30.5114C30.5333 30.5114 29.0323 30.7481 27.6403 31.2216C26.2482 31.6856 25.0124 32.3485 23.9329 33.2102C22.8439 34.072 21.949 35.0947 21.2482 36.2784C20.5475 37.4621 20.0882 38.7689 19.8704 40.1989H25.2397Z" fill="white"/>
<path d="M25.2397 40.1989L26.1952 40.4938L25.9776 41.1989H25.2397V40.1989ZM26.2198 38.1392L27.0538 38.6909L27.0489 38.6984L27.0439 38.7057L26.2198 38.1392ZM27.6971 36.5625L28.3055 37.3561L28.2992 37.3609L27.6971 36.5625ZM29.6573 35.5824L29.9514 36.5382L29.9401 36.5416L29.6573 35.5824ZM36.2482 36.4205L35.7071 37.2614L36.2482 36.4205ZM39.1317 39.8864L40.0404 39.4687L40.0415 39.4713L39.1317 39.8864ZM39.1317 51.0085L40.0425 51.4215L39.1317 51.0085ZM36.2482 54.4886L36.7909 55.3286L36.7864 55.3315L36.2482 54.4886ZM28.1232 54.8153L28.5858 53.9287L28.589 53.9304L28.1232 54.8153ZM25.609 52.4006L24.7379 52.8916L24.736 52.8882L25.609 52.4006ZM24.7283 48.7074L24.5754 47.7192L25.7283 47.5407V48.7074H24.7283ZM23.5352 48.892V49.892L23.3822 47.9038L23.5352 48.892ZM31.4329 48.892H32.4329V49.892H31.4329V48.892ZM31.4329 44.7727V43.7727H32.4329V44.7727H31.4329ZM19.6289 44.7727H18.6289V43.7727H19.6289V44.7727ZM21.2198 54.7301L20.356 55.234L21.2198 54.7301ZM25.5948 58.9347L25.1296 59.8199L25.1261 59.818L25.5948 58.9347ZM39.0465 58.5938L39.5616 59.4509L39.5569 59.4537L39.0465 58.5938ZM43.7766 53.4375L44.6696 53.8877L44.6672 53.8923L43.7766 53.4375ZM44.4727 39.1903L45.4123 38.8482L45.4139 38.8525L44.4727 39.1903ZM41.6602 34.4886L40.9293 35.1711L40.9268 35.1685L41.6602 34.4886ZM37.4272 31.5341L37.0437 32.4577L37.0391 32.4557L37.4272 31.5341ZM27.6403 31.2216L27.9623 32.1683L27.9565 32.1703L27.6403 31.2216ZM23.9329 33.2102L24.5567 33.9918L24.5534 33.9944L23.9329 33.2102ZM21.2482 36.2784L20.3877 35.769V35.769L21.2482 36.2784ZM19.8704 40.1989V41.1989H18.7065L18.8818 40.0483L19.8704 40.1989ZM24.2842 39.9039C24.548 39.049 24.9168 38.2694 25.3958 37.5727L27.0439 38.7057C26.6895 39.2212 26.4048 39.8146 26.1952 40.4938L24.2842 39.9039ZM25.3858 37.5875C25.8544 36.8791 26.4247 36.2695 27.095 35.7641L28.2992 37.3609C27.8141 37.7267 27.3996 38.1683 27.0538 38.6909L25.3858 37.5875ZM27.0887 35.7689C27.7614 35.2531 28.527 34.8731 29.3745 34.6232L29.9401 36.5416C29.3103 36.7273 28.7691 37.0007 28.3055 37.3561L27.0887 35.7689ZM29.3632 34.6266C30.2084 34.3666 31.1137 34.2415 32.0721 34.2415V36.2415C31.2881 36.2415 30.5835 36.3437 29.9514 36.5382L29.3632 34.6266ZM32.0721 34.2415C33.8113 34.2415 35.3941 34.6818 36.7893 35.5795L35.7071 37.2614C34.6592 36.5872 33.4579 36.2415 32.0721 36.2415V34.2415ZM36.7893 35.5795C38.1949 36.4839 39.2726 37.7983 40.0404 39.4687L38.2231 40.304C37.5894 38.9252 36.7447 37.929 35.7071 37.2614L36.7893 35.5795ZM40.0415 39.4713C40.8076 41.1503 41.1687 43.1471 41.1687 45.4261H39.1687C39.1687 43.3492 38.8385 41.6527 38.222 40.3015L40.0415 39.4713ZM41.1687 45.4261C41.1687 47.723 40.8079 49.7333 40.0425 51.4215L38.221 50.5956C38.8381 49.2345 39.1687 47.5232 39.1687 45.4261H41.1687ZM40.0425 51.4215C39.2836 53.0953 38.2051 54.4148 36.7909 55.3286L35.7055 53.6487C36.7535 52.9716 37.5973 51.971 38.221 50.5956L40.0425 51.4215ZM36.7864 55.3315C35.3765 56.2317 33.7552 56.6676 31.9585 56.6676V54.6676C33.4192 54.6676 34.6579 54.3176 35.7101 53.6458L36.7864 55.3315ZM31.9585 56.6676C30.3528 56.6676 28.9079 56.3584 27.6575 55.7003L28.589 53.9304C29.4976 54.4087 30.6096 54.6676 31.9585 54.6676V56.6676ZM27.6607 55.7019C26.405 55.0468 25.4227 54.1067 24.7379 52.8916L26.4802 51.9096C26.9695 52.7778 27.6634 53.4475 28.5858 53.9288L27.6607 55.7019ZM24.736 52.8882C24.0523 51.6642 23.7283 50.2596 23.7283 48.7074H25.7283C25.7283 49.9772 25.9915 51.0346 26.4821 51.9129L24.736 52.8882ZM24.8813 49.6956L23.6881 49.8803L23.3822 47.9038L24.5754 47.7192L24.8813 49.6956ZM23.5352 47.892H31.4329V49.892H23.5352V47.892ZM30.4329 48.892V44.7727H32.4329V48.892H30.4329ZM31.4329 45.7727H19.6289V43.7727H31.4329V45.7727ZM20.6289 44.7727V48.267H18.6289V44.7727H20.6289ZM20.6289 48.267C20.6289 50.6132 21.1273 52.5869 22.0836 54.2262L20.356 55.234C19.1911 53.2369 18.6289 50.902 18.6289 48.267H20.6289ZM22.0836 54.2262C23.0506 55.8839 24.3722 57.1539 26.0635 58.0513L25.1261 59.818C23.1053 58.7457 21.5103 57.2127 20.356 55.234L22.0836 54.2262ZM26.06 58.0494C27.7527 58.939 29.7196 59.3977 31.9869 59.3977V61.3977C29.4435 61.3977 27.149 60.8811 25.1296 59.8199L26.06 58.0494ZM31.9869 59.3977C34.5123 59.3977 36.6844 58.8327 38.5362 57.7338L39.5569 59.4537C37.3556 60.7601 34.8213 61.3977 31.9869 61.3977V59.3977ZM38.5314 57.7366C40.3781 56.6269 41.8292 55.0523 42.886 52.9827L44.6672 53.8923C43.4513 56.2735 41.749 58.1364 39.5616 59.4509L38.5314 57.7366ZM42.8837 52.9873C43.9261 50.9201 44.467 48.4295 44.467 45.483H46.467C46.467 48.6728 45.881 51.4852 44.6695 53.8877L42.8837 52.9873ZM44.467 45.483C44.467 43.2276 44.1486 41.2474 43.5315 39.5282L45.4139 38.8525C46.1225 40.8264 46.467 43.0414 46.467 45.483H44.467ZM43.533 39.5325C42.9013 37.7976 42.0301 36.35 40.9293 35.1711L42.391 33.8061C43.6955 35.203 44.6993 36.8899 45.4123 38.8482L43.533 39.5325ZM40.9268 35.1685C39.821 33.9756 38.529 33.0743 37.0437 32.4576L37.8107 30.6105C39.564 31.3385 41.094 32.407 42.3935 33.8088L40.9268 35.1685ZM37.0391 32.4557C35.5526 31.8298 33.9244 31.5114 32.1431 31.5114V29.5114C34.1686 29.5114 36.0632 29.8747 37.8153 30.6125L37.0391 32.4557ZM32.1431 31.5114C30.6324 31.5114 29.2413 31.7333 27.9623 32.1683L27.3183 30.2749C28.8234 29.7629 30.4341 29.5114 32.1431 29.5114V31.5114ZM27.9565 32.1703C26.669 32.5994 25.5388 33.2079 24.5567 33.9918L23.309 32.4287C24.4861 31.4891 25.8274 30.7718 27.324 30.2729L27.9565 32.1703ZM24.5534 33.9944C23.5596 34.7808 22.7464 35.7107 22.1087 36.7878L20.3877 35.769C21.1515 34.4787 22.1281 33.3631 23.3124 32.426L24.5534 33.9944ZM22.1087 36.7878C21.4766 37.8556 21.0585 39.0396 20.859 40.3494L18.8818 40.0483C19.1179 38.4983 19.6183 37.0686 20.3877 35.769L22.1087 36.7878ZM19.8704 39.1989H25.2397V41.1989H19.8704V39.1989Z" fill="white"/>
<path d="M72.7603 40.1989C72.5236 39.4318 72.1969 38.7453 71.7802 38.1392C71.373 37.5237 70.8806 36.9981 70.3029 36.5625C69.7347 36.1269 69.0813 35.8002 68.3427 35.5824C67.604 35.3551 66.7991 35.2415 65.9279 35.2415C64.3654 35.2415 62.9734 35.6345 61.7518 36.4205C60.5302 37.2064 59.569 38.3617 58.8683 39.8864C58.177 41.4015 57.8313 43.2481 57.8313 45.4261C57.8313 47.6231 58.177 49.4839 58.8683 51.0085C59.5595 52.5331 60.5207 53.6932 61.7518 54.4886C62.9828 55.2746 64.4128 55.6676 66.0415 55.6676C67.5188 55.6676 68.7972 55.3835 69.8768 54.8153C70.9658 54.2472 71.8039 53.4422 72.391 52.4006C72.9781 51.3494 73.2717 50.1184 73.2717 48.7074L74.4648 48.892H66.5671V44.7727H78.3711V48.267C78.3711 50.7576 77.8408 52.9119 76.7802 54.7301C75.7196 56.5483 74.2612 57.9498 72.4052 58.9347C70.5491 59.91 68.4184 60.3977 66.0131 60.3977C63.3332 60.3977 60.98 59.7964 58.9535 58.5938C56.9364 57.3816 55.3597 55.6629 54.2234 53.4375C53.0965 51.2027 52.533 48.5511 52.533 45.483C52.533 43.1345 52.8645 41.0369 53.5273 39.1903C54.1997 37.3438 55.1372 35.7765 56.3398 34.4886C57.5425 33.1913 58.9535 32.2064 60.5728 31.5341C62.1921 30.8523 63.9535 30.5114 65.8569 30.5114C67.4667 30.5114 68.9677 30.7481 70.3597 31.2216C71.7518 31.6856 72.9876 32.3485 74.0671 33.2102C75.1561 34.072 76.051 35.0947 76.7518 36.2784C77.4525 37.4621 77.9118 38.7689 78.1296 40.1989H72.7603Z" fill="white"/>
<path d="M72.7603 40.1989L71.8048 40.4938L72.0224 41.1989H72.7603V40.1989ZM71.7802 38.1392L70.9462 38.6909L70.9511 38.6984L70.9561 38.7057L71.7802 38.1392ZM70.3029 36.5625L69.6945 37.3561L69.7008 37.3609L70.3029 36.5625ZM68.3427 35.5824L68.0486 36.5382L68.0599 36.5416L68.3427 35.5824ZM61.7518 36.4205L62.2929 37.2614L62.2929 37.2614L61.7518 36.4205ZM58.8683 39.8864L57.9596 39.4687L57.9585 39.4713L58.8683 39.8864ZM58.8683 51.0085L57.9575 51.4215L57.9575 51.4215L58.8683 51.0085ZM61.7518 54.4886L61.2091 55.3286L61.2136 55.3315L61.7518 54.4886ZM69.8768 54.8153L69.4142 53.9288L69.411 53.9304L69.8768 54.8153ZM72.391 52.4006L73.2621 52.8916L73.264 52.8882L72.391 52.4006ZM73.2717 48.7074L73.4246 47.7192L72.2717 47.5407V48.7074H73.2717ZM74.4648 48.892V49.892L74.6178 47.9038L74.4648 48.892ZM66.5671 48.892H65.5671V49.892H66.5671V48.892ZM66.5671 44.7727V43.7727H65.5671V44.7727H66.5671ZM78.3711 44.7727H79.3711V43.7727H78.3711V44.7727ZM76.7802 54.7301L77.644 55.234L77.644 55.234L76.7802 54.7301ZM72.4052 58.9347L72.8704 59.8199L72.8739 59.818L72.4052 58.9347ZM58.9535 58.5938L58.4384 59.4509L58.4431 59.4537L58.9535 58.5938ZM54.2234 53.4375L53.3304 53.8877L53.3328 53.8923L54.2234 53.4375ZM53.5273 39.1903L52.5877 38.8482L52.5861 38.8525L53.5273 39.1903ZM56.3398 34.4886L57.0707 35.1711L57.0732 35.1685L56.3398 34.4886ZM60.5728 31.5341L60.9563 32.4577L60.9609 32.4557L60.5728 31.5341ZM70.3597 31.2216L70.0377 32.1683L70.0435 32.1703L70.3597 31.2216ZM74.0671 33.2102L73.4433 33.9918L73.4466 33.9944L74.0671 33.2102ZM76.7518 36.2784L77.6123 35.769L77.6123 35.769L76.7518 36.2784ZM78.1296 40.1989V41.1989H79.2935L79.1182 40.0483L78.1296 40.1989ZM73.7158 39.9039C73.452 39.049 73.0832 38.2694 72.6042 37.5727L70.9561 38.7057C71.3105 39.2212 71.5952 39.8146 71.8048 40.4938L73.7158 39.9039ZM72.6142 37.5875C72.1456 36.8791 71.5753 36.2695 70.905 35.7641L69.7008 37.3609C70.1859 37.7267 70.6004 38.1683 70.9462 38.6909L72.6142 37.5875ZM70.9113 35.7689C70.2386 35.2531 69.473 34.8731 68.6255 34.6232L68.0599 36.5416C68.6897 36.7273 69.2309 37.0007 69.6945 37.3561L70.9113 35.7689ZM68.6368 34.6266C67.7916 34.3666 66.8863 34.2415 65.9279 34.2415V36.2415C66.7119 36.2415 67.4165 36.3437 68.0486 36.5382L68.6368 34.6266ZM65.9279 34.2415C64.1887 34.2415 62.6059 34.6818 61.2107 35.5795L62.2929 37.2614C63.3408 36.5872 64.5421 36.2415 65.9279 36.2415V34.2415ZM61.2107 35.5795C59.8051 36.4839 58.7274 37.7983 57.9596 39.4687L59.7769 40.304C60.4106 38.9252 61.2553 37.929 62.2929 37.2614L61.2107 35.5795ZM57.9585 39.4713C57.1924 41.1503 56.8313 43.1471 56.8313 45.4261H58.8313C58.8313 43.3492 59.1615 41.6527 59.778 40.3015L57.9585 39.4713ZM56.8313 45.4261C56.8313 47.723 57.1921 49.7333 57.9575 51.4215L59.779 50.5956C59.1619 49.2345 58.8313 47.5232 58.8313 45.4261H56.8313ZM57.9575 51.4215C58.7164 53.0953 59.7949 54.4148 61.2091 55.3286L62.2945 53.6487C61.2465 52.9716 60.4027 51.971 59.779 50.5956L57.9575 51.4215ZM61.2136 55.3315C62.6235 56.2317 64.2448 56.6676 66.0415 56.6676V54.6676C64.5808 54.6676 63.3421 54.3176 62.2899 53.6458L61.2136 55.3315ZM66.0415 56.6676C67.6472 56.6676 69.0921 56.3584 70.3425 55.7003L69.411 53.9304C68.5024 54.4087 67.3904 54.6676 66.0415 54.6676V56.6676ZM70.3393 55.7019C71.595 55.0468 72.5773 54.1067 73.2621 52.8916L71.5198 51.9096C71.0305 52.7778 70.3366 53.4475 69.4142 53.9288L70.3393 55.7019ZM73.264 52.8882C73.9477 51.6642 74.2717 50.2596 74.2717 48.7074H72.2717C72.2717 49.9772 72.0085 51.0346 71.5179 51.9129L73.264 52.8882ZM73.1187 49.6956L74.3119 49.8803L74.6178 47.9038L73.4246 47.7192L73.1187 49.6956ZM74.4648 47.892H66.5671V49.892H74.4648V47.892ZM67.5671 48.892V44.7727H65.5671V48.892H67.5671ZM66.5671 45.7727H78.3711V43.7727H66.5671V45.7727ZM77.3711 44.7727V48.267H79.3711V44.7727H77.3711ZM77.3711 48.267C77.3711 50.6132 76.8727 52.5869 75.9164 54.2262L77.644 55.234C78.8089 53.2369 79.3711 50.902 79.3711 48.267H77.3711ZM75.9164 54.2262C74.9494 55.8839 73.6278 57.1539 71.9365 58.0513L72.8739 59.818C74.8947 58.7457 76.4897 57.2127 77.644 55.234L75.9164 54.2262ZM71.94 58.0494C70.2473 58.939 68.2804 59.3977 66.0131 59.3977V61.3977C68.5565 61.3977 70.851 60.8811 72.8704 59.8199L71.94 58.0494ZM66.0131 59.3977C63.4877 59.3977 61.3156 58.8327 59.4638 57.7338L58.4431 59.4537C60.6444 60.7601 63.1787 61.3977 66.0131 61.3977V59.3977ZM59.4686 57.7366C57.6219 56.6269 56.1708 55.0523 55.114 52.9827L53.3328 53.8923C54.5487 56.2735 56.251 58.1364 58.4384 59.4509L59.4686 57.7366ZM55.1163 52.9873C54.0739 50.9201 53.533 48.4295 53.533 45.483H51.533C51.533 48.6728 52.119 51.4852 53.3305 53.8877L55.1163 52.9873ZM53.533 45.483C53.533 43.2276 53.8514 41.2474 54.4685 39.5282L52.5861 38.8525C51.8775 40.8264 51.533 43.0414 51.533 45.483H53.533ZM54.467 39.5325C55.0987 37.7976 55.9699 36.35 57.0707 35.1711L55.609 33.8061C54.3045 35.203 53.3007 36.8899 52.5877 38.8482L54.467 39.5325ZM57.0732 35.1685C58.179 33.9756 59.471 33.0743 60.9563 32.4576L60.1893 30.6105C58.436 31.3385 56.906 32.407 55.6065 33.8088L57.0732 35.1685ZM60.9609 32.4557C62.4474 31.8298 64.0756 31.5114 65.8569 31.5114V29.5114C63.8314 29.5114 61.9368 29.8747 60.1847 30.6125L60.9609 32.4557ZM65.8569 31.5114C67.3676 31.5114 68.7587 31.7333 70.0377 32.1683L70.6817 30.2749C69.1766 29.7629 67.5659 29.5114 65.8569 29.5114V31.5114ZM70.0435 32.1703C71.331 32.5994 72.4612 33.2079 73.4433 33.9918L74.691 32.4287C73.5139 31.4891 72.1726 30.7718 70.676 30.2729L70.0435 32.1703ZM73.4466 33.9944C74.4404 34.7808 75.2536 35.7107 75.8913 36.7878L77.6123 35.769C76.8485 34.4787 75.8719 33.3631 74.6876 32.426L73.4466 33.9944ZM75.8913 36.7878C76.5234 37.8556 76.9415 39.0396 77.141 40.3494L79.1182 40.0483C78.8821 38.4983 78.3817 37.0686 77.6123 35.769L75.8913 36.7878ZM78.1296 39.1989H72.7603V41.1989H78.1296V39.1989Z" fill="white"/>
</svg>
