<svg width="102" height="96" viewBox="0 0 102 96" fill="none" xmlns="http://www.w3.org/2000/svg">
<path d="M7.726 71.5L51 0.956224L94.274 71.5H7.726Z" fill="#8F939E" stroke="#8F939E"/>
<path d="M50.7543 61.5227C48.3679 61.5227 46.2467 61.197 44.3906 60.5455C42.5421 59.9015 40.9815 58.9508 39.7088 57.6932C38.4361 56.4432 37.4702 54.9167 36.8111 53.1136C36.152 51.3106 35.8187 49.25 35.8111 46.9318C35.8187 44.6667 36.1558 42.625 36.8224 40.8068C37.4891 38.9811 38.4626 37.4205 39.7429 36.125C41.0232 34.822 42.5876 33.822 44.4361 33.125C46.2846 32.428 48.3868 32.0795 50.7429 32.0795C52.9626 32.0795 54.9285 32.4167 56.6406 33.0909C58.3603 33.7652 59.8111 34.7045 60.9929 35.9091C62.1823 37.1061 63.08 38.5076 63.6861 40.1136C64.2997 41.7121 64.6065 43.447 64.6065 45.3182C64.6065 46.6136 64.5081 47.8409 64.3111 49C64.1141 50.1515 63.777 51.1742 63.2997 52.0682C62.83 52.9621 62.1899 53.6742 61.3793 54.2045C60.5687 54.7273 59.5535 55.0114 58.3338 55.0568C57.5687 55.0947 56.8982 55.0227 56.3224 54.8409C55.7467 54.6591 55.2808 54.375 54.9247 53.9886C54.5762 53.5947 54.3565 53.1136 54.2656 52.5455H54.1293C53.955 53 53.6255 53.4167 53.1406 53.7955C52.6634 54.1667 52.0724 54.4583 51.3679 54.6705C50.6634 54.875 49.8793 54.9583 49.0156 54.9205C48.0914 54.875 47.2353 54.6629 46.4474 54.2841C45.6671 53.8977 44.9853 53.3598 44.402 52.6705C43.8262 51.9735 43.3793 51.1326 43.0611 50.1477C42.7429 49.1629 42.5838 48.0455 42.5838 46.7955C42.5838 45.5758 42.758 44.5 43.1065 43.5682C43.455 42.6364 43.9209 41.8409 44.5043 41.1818C45.0952 40.5227 45.7618 40.0076 46.5043 39.6364C47.2467 39.2576 48.0118 39.0152 48.7997 38.9091C49.6179 38.7955 50.3868 38.8068 51.1065 38.9432C51.8262 39.0795 52.4247 39.2879 52.902 39.5682C53.3868 39.8485 53.6899 40.1553 53.8111 40.4886H53.9702V39.2159H57.1406V50.0341C57.1482 50.6023 57.2846 51.0606 57.5497 51.4091C57.8224 51.7576 58.2012 51.9318 58.6861 51.9318C59.2921 51.9318 59.7808 51.6932 60.152 51.2159C60.5308 50.7311 60.8035 49.9886 60.9702 48.9886C61.1444 47.9811 61.2277 46.6932 61.2202 45.125C61.2277 43.8371 61.0573 42.6705 60.7088 41.625C60.3679 40.572 59.8831 39.6477 59.2543 38.8523C58.6255 38.0568 57.8717 37.3939 56.9929 36.8636C56.1217 36.3258 55.152 35.9205 54.0838 35.6477C53.0156 35.375 51.8755 35.2386 50.6634 35.2386C48.8073 35.2386 47.1747 35.5227 45.7656 36.0909C44.3565 36.6515 43.1747 37.4508 42.2202 38.4886C41.2732 39.5265 40.5573 40.7576 40.0724 42.1818C39.5952 43.5985 39.3565 45.1667 39.3565 46.8864C39.3565 48.7273 39.6065 50.3598 40.1065 51.7841C40.6141 53.2008 41.3565 54.3939 42.3338 55.3636C43.3111 56.3333 44.5194 57.0682 45.9588 57.5682C47.4058 58.0682 49.0687 58.3182 50.9474 58.3182C51.8111 58.3182 52.6558 58.25 53.4815 58.1136C54.3073 57.9773 55.0497 57.8182 55.7088 57.6364C56.3679 57.4545 56.8755 57.2955 57.2315 57.1591L58.1974 60.0455C57.7277 60.2879 57.0914 60.5227 56.2884 60.75C55.4929 60.9773 54.6141 61.1629 53.652 61.3068C52.6974 61.4508 51.7315 61.5227 50.7543 61.5227ZM49.9588 51.6591C50.9209 51.6591 51.6899 51.4735 52.2656 51.1023C52.8414 50.7235 53.2543 50.1629 53.5043 49.4205C53.7543 48.678 53.8755 47.7538 53.8679 46.6477C53.8679 45.6174 53.7391 44.7727 53.4815 44.1136C53.224 43.4545 52.8111 42.9659 52.2429 42.6477C51.6747 42.3295 50.9209 42.1705 49.9815 42.1705C49.133 42.1705 48.4096 42.3636 47.8111 42.75C47.2202 43.1364 46.7656 43.6705 46.4474 44.3523C46.1368 45.0265 45.9815 45.7955 45.9815 46.6591C45.9815 47.5227 46.1065 48.3371 46.3565 49.1023C46.6141 49.8598 47.0308 50.4773 47.6065 50.9545C48.1899 51.4242 48.974 51.6591 49.9588 51.6591Z" fill="white"/>
</svg>
